grf
version=1
nRows=19
nColumns=37
inDegrees=no
endheader
time	ground_force_1_vx	ground_force_1_vy	ground_force_1_vz	ground_force_1_px	ground_force_1_py	ground_force_1_pz	ground_moment_1_mx	ground_moment_1_my	ground_moment_1_mz	ground_force_2_vx	ground_force_2_vy	ground_force_2_vz	ground_force_2_px	ground_force_2_py	ground_force_2_pz	ground_moment_2_mx	ground_moment_2_my	ground_moment_2_mz	ground_force_3_vx	ground_force_3_vy	ground_force_3_vz	ground_force_3_px	ground_force_3_py	ground_force_3_pz	ground_moment_3_mx	ground_moment_3_my	ground_moment_3_mz	ground_force_4_vx	ground_force_4_vy	ground_force_4_vz	ground_force_4_px	ground_force_4_py	ground_force_4_pz	ground_moment_4_mx	ground_moment_4_my	ground_moment_4_mz
      0.00000000	      0.00000000	     -0.00000000	      0.00000000	      0.00000000	      0.00000000	      0.00000000	      0.00000000	      0.00000000	      0.00000000	    -10.44668388	    126.41134644	   -494.45190430	   -304.59408179	  -1224.48646283	      0.00000000	      0.00000000	      0.00000000	   3059.91842408	     -8.19027946	   -103.33637929	   -423.39907837	   -280.16192582	   -569.81672230	      0.00000000	      0.00000000	      0.00000000	   1437.41191363	      0.00000000	     -0.00000000	      0.00000000	      0.00000000	      0.00000000	      0.00000000	      0.00000000	      0.00000000	      0.00000000
      0.01000000	      0.00000000	     -0.00000000	      0.00000000	      0.00000000	      0.00000000	      0.00000000	      0.00000000	      0.00000000	      0.00000000	    -12.66789246	    126.59130859	   -488.45849609	   -301.12060522	  -1227.38079377	      0.00000000	      0.00000000	      0.00000000	   2951.24297750	     -9.10598429	   -104.51068799	   -422.24722290	   -277.93120855	   -567.33338537	      0.00000000	      0.00000000	      0.00000000	   1711.15167892	      0.00000000	     -0.00000000	      0.00000000	      0.00000000	      0.00000000	      0.00000000	      0.00000000	      0.00000000	      0.00000000
      0.02000000	      0.00000000	     -0.00000000	      0.00000000	      0.00000000	      0.00000000	      0.00000000	      0.00000000	      0.00000000	      0.00000000	    -14.48082256	    126.32646942	   -481.13272095	   -297.72045630	  -1229.19226390	      0.00000000	      0.00000000	      0.00000000	   2947.26840775	     -9.07426528	   -106.84075085	   -420.72772217	   -276.46559460	   -566.28522737	      0.00000000	      0.00000000	      0.00000000	   2070.06830856	      0.00000000	     -0.00000000	      0.00000000	      0.00000000	      0.00000000	      0.00000000	      0.00000000	      0.00000000	      0.00000000
      0.03000000	      0.00000000	     -0.00000000	      0.00000000	      0.00000000	      0.00000000	      0.00000000	      0.00000000	      0.00000000	      0.00000000	    -16.50394440	    125.76300049	   -476.66619873	   -295.32135105	  -1230.38149217	      0.00000000	      0.00000000	      0.00000000	   2967.38032607	     -8.81409755	   -110.72380752	   -421.66299438	   -275.92626397	   -563.75445437	      0.00000000	      0.00000000	      0.00000000	   2475.81040735	      0.00000000	     -0.00000000	      0.00000000	      0.00000000	      0.00000000	      0.00000000	      0.00000000	      0.00000000	      0.00000000
      0.04000000	      0.00000000	     -0.00000000	      0.00000000	      0.00000000	      0.00000000	      0.00000000	      0.00000000	      0.00000000	      0.00000000	    -18.40958405	    124.66124725	   -470.40618896	   -293.97530730	  -1231.38793040	      0.00000000	      0.00000000	      0.00000000	   3110.10600144	     -8.60848574	   -115.05489274	   -423.14398193	   -275.38291349	   -562.47619709	      0.00000000	      0.00000000	      0.00000000	   3123.28571418	      0.00000000	     -0.00000000	      0.00000000	      0.00000000	      0.00000000	      0.00000000	      0.00000000	      0.00000000	      0.00000000
      0.05000000	      0.00000000	     -0.00000000	      0.00000000	      0.00000000	      0.00000000	      0.00000000	      0.00000000	      0.00000000	      0.00000000	    -20.18578339	    123.89126587	   -464.43164062	   -292.02420633	  -1232.93215834	      0.00000000	      0.00000000	      0.00000000	   3101.12870766	     -8.54449926	   -118.46750566	   -422.94934082	   -274.44327734	   -561.51928660	      0.00000000	      0.00000000	      0.00000000	   3760.88079230	      0.00000000	     -0.00000000	      0.00000000	      0.00000000	      0.00000000	      0.00000000	      0.00000000	      0.00000000	      0.00000000
      0.06000000	      0.00000000	     -0.00000000	      0.00000000	      0.00000000	      0.00000000	      0.00000000	      0.00000000	      0.00000000	      0.00000000	    -21.29307938	    123.14550018	   -457.09088135	   -290.54070002	  -1232.49693182	      0.00000000	      0.00000000	      0.00000000	   3007.42047286	     -8.42753508	   -120.28983996	   -419.07571411	   -274.66678073	   -560.84385975	      0.00000000	      0.00000000	      0.00000000	   3935.51491347	      0.00000000	     -0.00000000	      0.00000000	      0.00000000	      0.00000000	      0.00000000	      0.00000000	      0.00000000	      0.00000000
      0.07000000	      0.00000000	     -0.00000000	      0.00000000	      0.00000000	      0.00000000	      0.00000000	      0.00000000	      0.00000000	      0.00000000	    -22.11932945	    122.01464844	   -451.49459839	   -289.45671261	  -1234.25948721	      0.00000000	      0.00000000	      0.00000000	   2938.46860977	     -7.94661629	   -121.28890922	   -415.36178589	   -274.36355331	   -560.63196364	      0.00000000	      0.00000000	      0.00000000	   4258.11454503	      0.00000000	     -0.00000000	      0.00000000	      0.00000000	      0.00000000	      0.00000000	      0.00000000	      0.00000000	      0.00000000
      0.08000000	      0.00000000	     -0.00000000	      0.00000000	      0.00000000	      0.00000000	      0.00000000	      0.00000000	      0.00000000	      0.00000000	    -22.55780602	    120.00268555	   -444.54266357	   -288.44335033	  -1234.72238795	      0.00000000	      0.00000000	      0.00000000	   3016.23980775	     -6.83074103	   -121.14460695	   -408.63687134	   -275.71310562	   -558.66388790	      0.00000000	      0.00000000	      0.00000000	   4401.45215886	      0.00000000	     -0.00000000	      0.00000000	      0.00000000	      0.00000000	      0.00000000	      0.00000000	      0.00000000	      0.00000000
      0.09000000	      0.00000000	     -0.00000000	      0.00000000	      0.00000000	      0.00000000	      0.00000000	      0.00000000	      0.00000000	      0.00000000	    -22.03499603	    117.52404785	   -434.45526123	   -287.84494603	  -1233.91441316	      0.00000000	      0.00000000	      0.00000000	   2926.01329663	     -5.79399978	   -121.22736308	   -400.21609497	   -275.60027613	   -558.89662132	      0.00000000	      0.00000000	      0.00000000	   4599.69443651	      0.00000000	     -0.00000000	      0.00000000	      0.00000000	      0.00000000	      0.00000000	      0.00000000	      0.00000000	      0.00000000
      0.10000000	      0.00000000	     -0.00000000	      0.00000000	      0.00000000	      0.00000000	      0.00000000	      0.00000000	      0.00000000	      0.00000000	    -21.23210144	    114.84558868	   -422.84255981	   -287.74444924	  -1233.31974858	      0.00000000	      0.00000000	      0.00000000	   2894.13988545	     -5.20053155	   -120.76327469	   -393.57998657	   -276.06996967	   -558.97789984	      0.00000000	      0.00000000	      0.00000000	   4695.86439592	      0.00000000	     -0.00000000	      0.00000000	      0.00000000	      0.00000000	      0.00000000	      0.00000000	      0.00000000	      0.00000000
      0.11000000	      0.00000000	     -0.00000000	      0.00000000	      0.00000000	      0.00000000	      0.00000000	      0.00000000	      0.00000000	      0.00000000	    -20.41426468	    111.68673706	   -414.71752930	   -289.22649723	  -1231.94178843	      0.00000000	      0.00000000	      0.00000000	   3057.60297756	     -5.62244799	   -120.26062726	   -390.00238037	   -276.98642050	   -558.72635162	      0.00000000	      0.00000000	      0.00000000	   4694.62826791	      0.00000000	     -0.00000000	      0.00000000	      0.00000000	      0.00000000	      0.00000000	      0.00000000	      0.00000000	      0.00000000
      0.12000000	      0.00000000	     -0.00000000	      0.00000000	      0.00000000	      0.00000000	      0.00000000	      0.00000000	      0.00000000	      0.00000000	    -18.93350029	    109.22552490	   -409.41818237	   -290.30351984	  -1230.50174686	      0.00000000	      0.00000000	      0.00000000	   3253.67850537	     -6.08719304	   -120.26042122	   -391.85604858	   -277.50297613	   -559.56353421	      0.00000000	      0.00000000	      0.00000000	   4396.29556858	      0.00000000	     -0.00000000	      0.00000000	      0.00000000	      0.00000000	      0.00000000	      0.00000000	      0.00000000	      0.00000000
      0.13000000	      0.00000000	     -0.00000000	      0.00000000	      0.00000000	      0.00000000	      0.00000000	      0.00000000	      0.00000000	      0.00000000	    -18.91262817	    107.69689941	   -406.72708130	   -292.01199133	  -1228.14127002	      0.00000000	      0.00000000	      0.00000000	   3370.85985304	     -7.38350865	   -119.58756954	   -395.21289062	   -278.47373080	   -560.38273666	      0.00000000	      0.00000000	      0.00000000	   3867.07840351	      0.00000000	     -0.00000000	      0.00000000	      0.00000000	      0.00000000	      0.00000000	      0.00000000	      0.00000000	      0.00000000
      0.14000000	      0.00000000	     -0.00000000	      0.00000000	      0.00000000	      0.00000000	      0.00000000	      0.00000000	      0.00000000	      0.00000000	    -18.00564957	    106.34000397	   -410.53247070	   -294.79660740	  -1226.01276983	      0.00000000	      0.00000000	      0.00000000	   3598.50402538	     -8.89103019	   -118.59616774	   -400.61224365	   -279.22461881	   -561.45540325	      0.00000000	      0.00000000	      0.00000000	   3311.22898291	      0.00000000	     -0.00000000	      0.00000000	      0.00000000	      0.00000000	      0.00000000	      0.00000000	      0.00000000	      0.00000000
      0.15000000	      0.00000000	     -0.00000000	      0.00000000	      0.00000000	      0.00000000	      0.00000000	      0.00000000	      0.00000000	      0.00000000	    -17.82276726	    106.36748505	   -418.37991333	   -296.94023425	  -1223.32608110	      0.00000000	      0.00000000	      0.00000000	   3653.65212818	     -9.69652816	   -116.84959327	   -408.99282837	   -281.03333891	   -563.46984353	      0.00000000	      0.00000000	      0.00000000	   2387.47672007	      0.00000000	     -0.00000000	      0.00000000	      0.00000000	      0.00000000	      0.00000000	      0.00000000	      0.00000000	      0.00000000
      0.16000000	      0.00000000	     -0.00000000	      0.00000000	      0.00000000	      0.00000000	      0.00000000	      0.00000000	      0.00000000	      0.00000000	    -16.79861069	    106.88355255	   -424.98251343	   -300.79206326	  -1219.54242208	      0.00000000	      0.00000000	      0.00000000	   3745.80601061	    -10.68802500	   -114.57218840	   -420.72772217	   -283.12189295	   -565.87903884	      0.00000000	      0.00000000	      0.00000000	   1424.07135112	      0.00000000	     -0.00000000	      0.00000000	      0.00000000	      0.00000000	      0.00000000	      0.00000000	      0.00000000	      0.00000000
      0.17000000	      0.00000000	     -0.00000000	      0.00000000	      0.00000000	      0.00000000	      0.00000000	      0.00000000	      0.00000000	      0.00000000	    -15.23663712	    107.25074768	   -434.87097168	   -305.09741827	  -1218.33572138	      0.00000000	      0.00000000	      0.00000000	   3949.96407864	    -10.71739317	   -111.95693876	   -440.66940308	   -287.71807550	   -569.67271081	      0.00000000	      0.00000000	      0.00000000	    191.89471771	      0.00000000	     -0.00000000	      0.00000000	      0.00000000	      0.00000000	      0.00000000	      0.00000000	      0.00000000	      0.00000000
      0.18000000	      0.00000000	     -0.00000000	      0.00000000	      0.00000000	      0.00000000	      0.00000000	      0.00000000	      0.00000000	      0.00000000	    -12.46270084	    107.37538147	   -440.83901978	   -307.93290825	  -1217.43381176	      0.00000000	      0.00000000	      0.00000000	   3772.06932553	    -10.19307524	   -109.77456576	   -465.28256226	   -292.73107700	   -573.81816677	      0.00000000	      0.00000000	     -0.00000000	  -1149.15357042	      0.00000000	     -0.00000000	      0.00000000	      0.00000000	      0.00000000	      0.00000000	      0.00000000	      0.00000000	      0.00000000
